<?xml version="1.0" encoding="UTF-8" standalone="no"?>
<!-- Created with Inkscape (http://www.inkscape.org/) -->

<svg
   width="650"
   height="400"
   viewBox="0 0 171.97916 105.83334"
   version="1.1"
   id="svg5"
   inkscape:version="1.2 (dc2aedaf03, 2022-05-15)"
   sodipodi:docname="legends-settlement-landscape-inkscape.svg"
   xmlns:inkscape="http://www.inkscape.org/namespaces/inkscape"
   xmlns:sodipodi="http://sodipodi.sourceforge.net/DTD/sodipodi-0.dtd"
   xmlns="http://www.w3.org/2000/svg"
   xmlns:svg="http://www.w3.org/2000/svg"
   xmlns:rdf="http://www.w3.org/1999/02/22-rdf-syntax-ns#"
   xmlns:cc="http://creativecommons.org/ns#"
   xmlns:dc="http://purl.org/dc/elements/1.1/">
  <title
     id="title4879">legend-settlement</title>
  <sodipodi:namedview
     id="namedview7"
     pagecolor="#ffffff"
     bordercolor="#666666"
     borderopacity="1.0"
     inkscape:showpageshadow="2"
     inkscape:pageopacity="0.0"
     inkscape:pagecheckerboard="0"
     inkscape:deskcolor="#d1d1d1"
     inkscape:document-units="mm"
     showgrid="false"
     inkscape:zoom="0.8428439"
     inkscape:cx="268.73304"
     inkscape:cy="280.59763"
     inkscape:window-width="1920"
     inkscape:window-height="1018"
     inkscape:window-x="2729"
     inkscape:window-y="404"
     inkscape:window-maximized="1"
     inkscape:current-layer="layer1" />
  <defs
     id="defs2">
    <rect
       x="203.47777"
       y="382.63312"
       width="28.475023"
       height="48.051601"
       id="rect4745" />
  </defs>
  <g
     inkscape:label="Layer 1"
     inkscape:groupmode="layer"
     id="layer1">
    <text
       xml:space="preserve"
       style="font-style:normal;font-weight:normal;font-size:10.5833px;line-height:1.25;font-family:sans-serif;fill:#000000;fill-opacity:1;stroke:none;stroke-width:0.264583"
       x="3.1076226"
       y="15.538118"
       id="text186"><tspan
         sodipodi:role="line"
         id="tspan184"
         x="3.1076226"
         y="15.538118"
         style="stroke-width:0.264583">KEY</tspan></text>
    <text
       xml:space="preserve"
       style="font-style:normal;font-weight:normal;font-size:4.23333px;line-height:1.25;font-family:sans-serif;fill:#000000;fill-opacity:1;stroke:none;stroke-width:0.264583"
       x="12.815757"
       y="27.049509"
       id="text190"><tspan
         sodipodi:role="line"
         id="tspan188"
         x="12.815757"
         y="27.049509"
         style="font-size:4.23333px;stroke-width:0.264583">Enclave Cities of Simeon</tspan></text>
    <text
       xml:space="preserve"
       style="font-style:normal;font-weight:normal;font-size:4.23333px;line-height:1.25;font-family:sans-serif;fill:#000000;fill-opacity:1;stroke:none;stroke-width:0.264583"
       x="12.815757"
       y="34.987007"
       id="text194"><tspan
         sodipodi:role="line"
         id="tspan192"
         x="12.815757"
         y="34.987007"
         style="font-size:4.23333px;stroke-width:0.264583">Enclave Cities of Manasseh</tspan></text>
    <text
       xml:space="preserve"
       style="font-style:normal;font-weight:normal;font-size:4.23333px;line-height:1.25;font-family:sans-serif;fill:#000000;fill-opacity:1;stroke:none;stroke-width:0.264583"
       x="12.991456"
       y="42.924507"
       id="text198"><tspan
         sodipodi:role="line"
         id="tspan196"
         x="12.991456"
         y="42.924507"
         style="font-size:4.23333px;stroke-width:0.264583">Cities of Refuge</tspan></text>
    <text
       xml:space="preserve"
       style="font-style:normal;font-weight:normal;font-size:4.23333px;line-height:1.25;font-family:sans-serif;fill:#000000;fill-opacity:1;stroke:none;stroke-width:0.264583"
       x="12.815757"
       y="50.841339"
       id="text202"><tspan
         sodipodi:role="line"
         id="tspan200"
         x="12.815757"
         y="50.841339"
         style="font-size:4.23333px;stroke-width:0.264583">Location Reasonably Certain</tspan></text>
    <text
       xml:space="preserve"
       style="font-style:normal;font-weight:normal;font-size:4.23333px;line-height:1.25;font-family:sans-serif;fill:#000000;fill-opacity:1;stroke:none;stroke-width:0.264583"
       x="12.815757"
       y="58.696156"
       id="text206"><tspan
         sodipodi:role="line"
         id="tspan204"
         x="12.815757"
         y="58.696156"
         style="font-size:4.23333px;stroke-width:0.264583">Location Less Certain</tspan></text>
    <text
       xml:space="preserve"
       style="font-style:normal;font-weight:normal;font-size:4.23333px;line-height:1.25;font-family:sans-serif;fill:#000000;fill-opacity:1;stroke:none;stroke-width:0.264583"
       x="12.815757"
       y="66.598518"
       id="text210"><tspan
         sodipodi:role="line"
         id="tspan208"
         x="12.815757"
         y="66.598518"
         style="font-size:4.23333px;stroke-width:0.264583">Mountain</tspan></text>
    <text
       xml:space="preserve"
       style="font-style:normal;font-weight:normal;font-size:4.23333px;line-height:1.25;font-family:sans-serif;fill:#000000;fill-opacity:1;stroke:none;stroke-width:0.264583"
       x="12.815757"
       y="74.653839"
       id="text214"><tspan
         sodipodi:role="line"
         id="tspan212"
         x="12.815757"
         y="74.653839"
         style="font-size:4.23333px;stroke-width:0.264583">Precise Location Unknown</tspan></text>
    <text
       xml:space="preserve"
       style="font-style:normal;font-weight:normal;font-size:4.23333px;line-height:1.25;font-family:sans-serif;fill:#000000;fill-opacity:1;stroke:none;stroke-width:0.264583"
       x="12.815757"
       y="82.591339"
       id="text218"><tspan
         sodipodi:role="line"
         id="tspan216"
         x="12.815757"
         y="82.591339"
         style="font-size:4.23333px;stroke-width:0.264583">Road</tspan></text>
    <rect
       style="fill:#000000;stroke-width:0.597641;stroke-linejoin:bevel"
       id="rect430"
       width="170.79185"
       height="0.88789248"
       x="0.017309539"
       y="18.645739" />
    <text
       xml:space="preserve"
       style="font-style:normal;font-weight:normal;font-size:4.23333px;line-height:1.25;font-family:sans-serif;fill:#000000;fill-opacity:1;stroke:none;stroke-width:0.264583"
       x="79.641151"
       y="78.131439"
       id="text538"><tspan
         sodipodi:role="line"
         id="tspan536"
         x="79.641151"
         y="78.131439"
         style="font-size:4.23333px;stroke-width:0.264583">Alternative location names from same</tspan><tspan
         sodipodi:role="line"
         x="79.641151"
         y="83.423096"
         style="font-size:4.23333px;stroke-width:0.264583"
         id="tspan540">time period are separated by a comma</tspan></text>
    <text
       xml:space="preserve"
       style="font-style:normal;font-weight:normal;font-size:4.23333px;line-height:1.25;font-family:sans-serif;fill:#000000;fill-opacity:1;stroke:none;stroke-width:0.264583"
       x="80.14463"
       y="93.068985"
       id="text538-4"><tspan
         sodipodi:role="line"
         x="80.14463"
         y="93.068985"
         style="font-size:4.23333px;stroke-width:0.264583"
         id="tspan540-5">Alternative location names from different</tspan><tspan
         sodipodi:role="line"
         x="80.14463"
         y="98.360649"
         style="font-size:4.23333px;stroke-width:0.264583"
         id="tspan576">time periods are in parentheses</tspan></text>
    <rect
       style="fill:#000000;stroke-width:0.596541;stroke-linejoin:bevel"
       id="rect430-7"
       width="170.16402"
       height="0.88789248"
       x="1.1797875"
       y="104.5239" />
    <ellipse
       cx="8.466671"
       cy="49.212502"
       stroke="#000000"
       stroke-width="0.396875"
       fill="#000000"
       id="circle602"
       rx="1.3890628"
       ry="1.3890625" />
    <ellipse
       cx="8.466671"
       cy="25.4"
       stroke="#00a94f"
       stroke-width="0.396875"
       fill="#00a94f"
       id="circle751"
       rx="1.3890628"
       ry="1.3890625" />
    <ellipse
       cx="8.466671"
       cy="33.337502"
       stroke="#9d31bd"
       stroke-width="0.396875"
       fill="#9d31bd"
       id="circle900"
       rx="1.3890625"
       ry="1.3890628" />
    <ellipse
       cx="8.466671"
       cy="41.275002"
       stroke="#e6082d"
       stroke-width="0.396875"
       fill="#e6082d"
       id="circle1049"
       rx="1.3890628"
       ry="1.3890625" />
    <g
       id="g1198"
       transform="matrix(0.69376695,0,0,0.69376695,6.1502254,71.117938)">
      <path
         d="M 2.4459616,3.7472395 Q 2.4180563,3.6666243 2.3963522,3.5395003 2.3746481,3.4092757 2.3746481,3.2821516 q 0,-0.1984375 0.077515,-0.3565673 Q 2.532778,2.7643538 2.6506002,2.6248274 2.7684225,2.4853011 2.9079489,2.358177 3.0474752,2.2279524 3.1652975,2.0977278 3.2831198,1.9644026 3.3606344,1.8217757 q 0.080615,-0.1457276 0.080615,-0.3193604 0,-0.1488281 -0.058911,-0.2635498 Q 3.326528,1.1241438 3.2273092,1.0466292 3.1280905,0.96911455 2.9978659,0.93190752 2.8676413,0.89159991 2.7219137,0.89159991 q -0.523999,0 -0.9084716,0.41237789 V 0.75827471 q 0.4743896,-0.29765624 0.9828857,-0.29765624 0.2356445,0 0.4433838,0.0620117 Q 3.4474508,0.5846419 3.6024801,0.70866534 3.76061,0.82958819 3.850527,1.0125228 3.940444,1.1954573 3.940444,1.437303 q 0,0.2294434 -0.080615,0.4092774 Q 3.7792135,2.0264143 3.6551901,2.1783431 3.5342672,2.3271712 3.3916403,2.4573958 3.2490133,2.5876204 3.1249899,2.717845 3.004067,2.844969 2.9234518,2.9844954 q -0.080615,0.1395263 -0.080615,0.306958 0,0.1426269 0.034106,0.2604492 0.034107,0.1147217 0.068213,0.1953369 z m 0.2790527,1.2898437 q -0.1364258,0 -0.2418457,-0.099219 -0.1023193,-0.099219 -0.1023193,-0.2418457 0,-0.1457275 0.1023193,-0.2418457 0.1023193,-0.1023193 0.2418457,-0.1023193 0.1395264,0 0.2418457,0.1023193 0.1023193,0.096118 0.1023193,0.2418457 0,0.1426269 -0.1023193,0.2418457 -0.1054199,0.099219 -0.2418457,0.099219 z"
         fill="#000000"
         id="path1196" />
    </g>
    <ellipse
       cx="8.466671"
       cy="57.150002"
       stroke="#000000"
       stroke-width="0.396875"
       fill="#ffffff"
       id="circle1352"
       rx="1.3890628"
       ry="1.3890625" />
    <path
       fill="#826539"
       d="m 8.7552969,63.5 c -0.0866,0 -0.115454,0.05773 -0.173182,0.115454 l -1.6740901,2.742047 c -0.02886,0.02887 -0.02886,0.08659 -0.02886,0.115454 0,0.144318 0.115454,0.202045 0.202045,0.202045 H 10.42939 c 0.115455,0 0.202046,-0.05773 0.202046,-0.202045 0,-0.05773 0,-0.05773 -0.02886,-0.115454 L 8.9573486,63.615454 C 8.8996189,63.557724 8.8418949,63.5 8.7553049,63.5 Z m 0,0.432955 0.9524994,1.5875 H 9.4768873 L 9.0439326,65.0875 8.7552969,65.520455 8.4666609,65.0875 8.0337072,65.520455 H 7.7739345 Z"
       id="path1550"
       style="stroke-width:0.288636" />
    <path
       id="path1936-6"
       style="fill:#a05a2c;stroke-width:0.984515;stroke-linejoin:bevel"
       class="UnoptimicedTransforms"
       transform="matrix(-0.06350021,0,0,-0.06438414,12.851063,84.692523)"
       d="m 77.392374,69.264993 c 0,0 -15.035422,-16.416621 -25.006724,-16.416621 -9.971302,-10e-7 -25.006725,16.416621 -25.006725,16.416621 V 46.604962 c 0,0 15.561174,-13.327774 25.006725,-13.327774 9.44555,0 25.006724,13.327774 25.006724,13.327774 z m -0.02723,-22.662226 c 0,0 15.035422,16.416621 25.006716,16.416621 9.97131,10e-7 25.00673,-16.416621 25.00673,-16.416621 v 22.660031 c 0,0 -15.56117,13.327774 -25.00673,13.327774 -9.445542,0 -25.006716,-13.327774 -25.006716,-13.327774 z" />
    <g
       id="g2302"
       transform="translate(61.690158,-61.968367)">
      <g
         id="g2130"
         transform="translate(18.537224,95.807553)">
        <circle
           style="fill:#008080;fill-rule:evenodd;stroke-width:0.093999"
           cx="2.7721934"
           cy="2.7485011"
           r="2.6458333"
           id="circle2128" />
      </g>
      <g
         id="g2134"
         transform="translate(18.537224,95.807553)">
        <path
           d="M 3.0582957,4.4226813 H 2.6242136 V 1.6566136 Q 2.4674617,1.8061307 2.2118356,1.9556479 1.958621,2.1051651 1.7560493,2.1799237 V 1.760311 Q 2.120196,1.5890897 2.3927031,1.3455214 2.6652102,1.1019531 2.7785539,0.87285416 h 0.2797418 z"
           fill="#ffffff"
           id="path2132" />
      </g>
    </g>
    <g
       id="g2738"
       transform="translate(80.227379,43.09965)">
      <g
         id="g2605">
        <circle
           style="fill:#008080;fill-rule:evenodd;stroke-width:0.093999"
           cx="2.7721934"
           cy="2.7485011"
           r="2.6458333"
           id="circle2603" />
      </g>
      <g
         id="g2609">
        <path
           d="M 3.838621,3.9161304 V 4.3333316 H 1.5018122 Q 1.4969891,4.1765797 1.5524551,4.0318857 1.6416831,3.7931405 1.8370201,3.56163 2.0347686,3.3301196 2.40615,3.0262621 2.9825146,2.5535949 3.1850862,2.2786762 3.3876579,2.0013459 3.3876579,1.7553661 q 0,-0.2580377 -0.1856907,-0.4340822 Q 3.0186881,1.142828 2.7220653,1.142828 q -0.3135037,0 -0.501606,0.1881022 Q 2.032357,1.5190325 2.0299455,1.8518288 l -0.44614,-0.04582 q 0.04582,-0.4991945 0.3448541,-0.7596437 0.2990344,-0.26286089 0.803052,-0.26286089 0.5088407,0 0.8054635,0.28215339 0.2966228,0.2821534 0.2966228,0.6993545 0,0.212218 -0.086816,0.4172012 Q 3.660165,2.3871967 3.4575934,2.613884 3.2574333,2.8405714 2.7895892,3.2360684 2.3989153,3.5640416 2.2879832,3.6822084 2.1770511,3.7979636 2.1047041,3.9161304 Z"
           fill="#ffffff"
           id="path2607" />
      </g>
    </g>
    <g
       id="g2919"
       transform="translate(80.227379,52.3601)">
      <g
         id="g2784">
        <circle
           style="fill:#008080;fill-rule:evenodd;stroke-width:0.093999"
           cx="2.7721934"
           cy="2.7485011"
           r="2.6458333"
           id="circle2782" />
      </g>
      <g
         id="g2788">
        <path
           d="m 1.6267025,3.4223924 0.4340821,-0.057878 q 0.074759,0.3689698 0.2532146,0.5329564 0.1808676,0.161575 0.4389053,0.161575 0.306269,0 0.5160754,-0.2122179 0.2122179,-0.2122179 0.2122179,-0.5257217 0,-0.2990343 -0.1953369,-0.4919597 -0.195337,-0.195337 -0.4967829,-0.195337 -0.12299,0 -0.3062691,0.048231 l 0.048231,-0.3810277 q 0.043408,0.00482 0.069935,0.00482 0.2773303,0 0.4991945,-0.1446941 0.2218642,-0.144694 0.2218642,-0.44614 0,-0.2387451 -0.161575,-0.395497 -0.1615751,-0.1567519 -0.4172012,-0.1567519 -0.2532146,0 -0.4220243,0.1591635 Q 2.1524242,1.4810807 2.1041928,1.7994076 L 1.6701107,1.7222375 Q 1.7496924,1.2857438 2.0318458,1.0469986 2.3139992,0.80584185 2.7336119,0.80584185 q 0.2893881,0 0.5329564,0.1254015 0.2435683,0.12298995 0.3713814,0.33761945 0.1302246,0.2146295 0.1302246,0.4557862 0,0.2290989 -0.1229899,0.4172012 -0.1229899,0.1881022 -0.3641467,0.2990343 0.3135038,0.072347 0.4871366,0.3014459 0.1736329,0.2266874 0.1736329,0.5691299 0,0.463021 -0.3376195,0.786171 -0.3376194,0.3207385 -0.8536948,0.3207385 -0.4654325,0 -0.7741131,-0.2773303 Q 1.6701107,3.8637093 1.6267025,3.4223924 Z"
           fill="#ffffff"
           id="path2786" />
      </g>
    </g>
    <g
       id="g3098"
       transform="translate(80.227379,61.62052)">
      <g
         id="g2965">
        <circle
           style="fill:#008080;fill-rule:evenodd;stroke-width:0.093999"
           cx="2.7721934"
           cy="2.7485011"
           r="2.6458333"
           id="circle2963" />
      </g>
      <g
         id="g2969">
        <path
           d="M 2.9487526,4.3109941 V 3.464534 H 1.4149958 V 3.0666254 L 3.0283344,0.77563638 H 3.3828348 V 3.0666254 H 3.8603251 V 3.464534 H 3.3828348 v 0.8464601 z m 0,-1.2443687 V 1.4725793 L 1.8418432,3.0666254 Z"
           fill="#ffffff"
           id="path2967" />
      </g>
    </g>
    <g
       id="g3277"
       transform="translate(110.38988,33.839194)">
      <g
         id="g3144">
        <circle
           style="fill:#008080;fill-rule:evenodd;stroke-width:0.093999"
           cx="2.7721934"
           cy="2.7485011"
           r="2.6458333"
           id="circle3142" />
      </g>
      <g
         id="g3148">
        <path
           d="m 1.5796158,3.4743025 0.4557863,-0.038585 q 0.050643,0.3327963 0.233922,0.501606 0.1856907,0.1663982 0.44614,0.1663982 0.3135037,0 0.5305448,-0.2363336 0.217041,-0.2363336 0.217041,-0.6270075 0,-0.3713814 -0.2098063,-0.5860109 -0.2073948,-0.2146295 -0.5450142,-0.2146295 -0.2098064,0 -0.3786161,0.096463 -0.1688097,0.094051 -0.2652724,0.2459799 L 1.656786,2.7291282 1.9992285,0.91321795 H 3.7572612 V 1.3280075 H 2.3464942 L 2.1559804,2.2781651 q 0.3183269,-0.2218642 0.6680042,-0.2218642 0.4630209,0 0.7813478,0.3207384 0.3183269,0.3207385 0.3183269,0.8247561 0,0.4799019 -0.2797418,0.8295792 -0.340031,0.429259 -0.9284534,0.429259 -0.4823135,0 -0.7885826,-0.2700956 Q 1.623024,3.9204425 1.5796158,3.4743025 Z"
           fill="#ffffff"
           id="path3146" />
      </g>
    </g>
    <g
       id="g3456"
       transform="translate(110.38988,43.09965)">
      <g
         id="g3323">
        <circle
           style="fill:#008080;fill-rule:evenodd;stroke-width:0.093999"
           cx="2.7721934"
           cy="2.7485011"
           r="2.6458333"
           id="circle3321" />
      </g>
      <g
         id="g3327">
        <path
           d="M 3.8320198,1.6860644 3.4003492,1.7198264 Q 3.3424716,1.4642002 3.2363626,1.348445 3.0603182,1.1627543 2.8022805,1.1627543 q -0.2073948,0 -0.3641467,0.1157552 Q 2.2331506,1.4280267 2.1149838,1.7150032 1.996817,2.0019797 1.9919938,2.5325246 2.1487457,2.2937794 2.3754331,2.1780242 2.6021204,2.0622689 2.8505118,2.0622689 q 0.4340822,0 0.7379396,0.3207385 0.3062691,0.3183269 0.3062691,0.824756 0,0.3327963 -0.144694,0.6197728 Q 3.607744,4.1121012 3.356941,4.2640299 3.106138,4.4159587 2.7878111,4.4159587 q -0.5426027,0 -0.8850452,-0.3979086 -0.3424426,-0.4003202 -0.3424426,-1.3167158 0,-1.0249162 0.3786161,-1.4903487 0.3303847,-0.40514327 0.8898683,-0.40514327 0.4172012,0 0.6824736,0.23392207 0.267684,0.233922 0.3207385,0.6463 z M 2.0595177,3.210175 q 0,0.2242758 0.094051,0.429259 0.096463,0.2049832 0.2676839,0.3135037 0.1712213,0.106109 0.3593236,0.106109 0.2749187,0 0.4726672,-0.2218642 0.1977485,-0.2218642 0.1977485,-0.6028918 0,-0.3665583 -0.195337,-0.5763646 -0.1953369,-0.212218 -0.4919597,-0.212218 -0.2942112,0 -0.4991944,0.212218 Q 2.0595177,2.8677324 2.0595177,3.210175 Z"
           fill="#ffffff"
           id="path3325" />
      </g>
    </g>
    <g
       id="g3635"
       transform="translate(110.38988,52.3601)">
      <g
         id="g3502">
        <circle
           style="fill:#008080;fill-rule:evenodd;stroke-width:0.093999"
           cx="2.7721934"
           cy="2.7485011"
           r="2.6458333"
           id="circle3500" />
      </g>
      <g
         id="g3506">
        <path
           d="M 1.6532297,1.3950203 V 0.97781917 H 3.9418072 V 1.3154386 Q 3.6041877,1.6747621 3.2713915,2.2704193 2.9410067,2.8660764 2.7601392,3.4954955 2.6299145,3.9392239 2.593741,4.4673572 H 2.1476011 Q 2.1548358,4.050156 2.3115876,3.459322 2.4683395,2.868488 2.7601392,2.3210622 3.0543504,1.7712248 3.3847351,1.3950203 Z"
           fill="#ffffff"
           id="path3504" />
      </g>
    </g>
    <g
       id="g3814"
       transform="translate(110.38988,61.62052)">
      <g
         id="g3681">
        <circle
           style="fill:#008080;fill-rule:evenodd;stroke-width:0.093999"
           cx="2.7721934"
           cy="2.7485011"
           r="2.6458333"
           id="circle3679" />
      </g>
      <g
         id="g3685">
        <path
           d="M 2.24762,2.4384734 Q 1.9775244,2.3395992 1.8472998,2.1563201 1.7170752,1.9730409 1.7170752,1.7174148 q 0,-0.3858508 0.2773302,-0.6487116 0.2773303,-0.26286087 0.7379396,-0.26286087 0.463021,0 0.7451743,0.27009557 0.2821534,0.2676839 0.2821534,0.6535347 0,0.2459799 -0.1302246,0.429259 -0.1278131,0.1808676 -0.3906739,0.2797418 0.3255616,0.106109 0.4943713,0.3424426 0.1712213,0.2363336 0.1712213,0.5643068 0,0.4533746 -0.3207385,0.7620553 -0.3207384,0.3086806 -0.8440486,0.3086806 -0.5233101,0 -0.8440486,-0.3086806 -0.3207384,-0.3110922 -0.3207384,-0.7741132 0,-0.3448541 0.1736328,-0.5763646 Q 1.92447,2.5228783 2.24762,2.4384734 Z M 2.160804,1.7029454 q 0,0.250803 0.161575,0.4099664 0.161575,0.1591635 0.4196127,0.1591635 0.250803,0 0.4099665,-0.1567519 0.161575,-0.1591634 0.161575,-0.3882623 0,-0.2387452 -0.1663982,-0.4003202 -0.163987,-0.1639866 -0.4099668,-0.1639866 -0.2483915,0 -0.4123781,0.1591634 Q 2.1608036,1.4810812 2.160804,1.7029454 Z M 2.0209327,3.3355765 q 0,0.1856907 0.086816,0.3593235 0.089228,0.1736329 0.2628608,0.2700956 0.1736329,0.094051 0.373793,0.094051 0.3110922,0 0.5136638,-0.2001601 0.2025717,-0.2001601 0.2025717,-0.5088407 0,-0.3135038 -0.2098064,-0.518487 -0.2073948,-0.2049832 -0.5208985,-0.2049832 -0.3062691,0 -0.5088408,0.2025717 -0.20016,0.2025716 -0.2001596,0.5064292 z"
           fill="#ffffff"
           id="path3683" />
      </g>
    </g>
    <g
       id="g3993"
       transform="translate(143.72738,33.839194)">
      <g
         id="g3860">
        <circle
           style="fill:#008080;fill-rule:evenodd;stroke-width:0.093999"
           cx="2.7721934"
           cy="2.7485011"
           r="2.6458333"
           id="circle3858" />
      </g>
      <g
         id="g3864">
        <path
           d="M 1.7117408,3.582823 2.128942,3.544238 q 0.053054,0.2942112 0.2025716,0.4268474 0.1495172,0.1326362 0.3834392,0.1326362 0.2001601,0 0.3496773,-0.09164 0.1519288,-0.09164 0.2483914,-0.2435683 0.096463,-0.1543403 0.1615751,-0.4147896 0.065112,-0.2604492 0.065112,-0.5305448 0,-0.028939 -0.00241,-0.086816 Q 3.407074,2.9437577 3.1803866,3.0739823 2.9561109,3.2017954 2.69325,3.2017954 q -0.4389052,0 -0.7427627,-0.3183269 Q 1.6466285,2.5651416 1.6466285,2.044243 q 0,-0.5377795 0.3159153,-0.8657526 0.3183269,-0.3279732 0.7958173,-0.3279732 0.3448541,0 0.629419,0.1856907 0.2869766,0.1856907 0.4340822,0.5305448 0.1495171,0.3424426 0.1495171,0.9935658 0,0.6776504 -0.1471056,1.0803821 -0.1471056,0.4003202 -0.4389052,0.6101266 -0.2893881,0.2098064 -0.680062,0.2098064 -0.4147896,0 -0.6776505,-0.2290989 Q 1.7647953,4.0000242 1.7117408,3.582823 Z M 3.489066,2.0225389 q 0,-0.3737929 -0.2001601,-0.5932455 -0.1977486,-0.2194527 -0.4774904,-0.2194527 -0.2893881,0 -0.5040175,0.2363336 -0.2146295,0.2363336 -0.2146295,0.6125382 0,0.3376194 0.2025716,0.5498373 0.2049832,0.2098064 0.5040176,0.2098064 0.3014459,0 0.4943713,-0.2098064 0.195337,-0.2122179 0.195337,-0.5860109 z"
           fill="#ffffff"
           id="path3862" />
      </g>
    </g>
    <g
       id="g4188"
       transform="translate(143.72738,43.09965)">
      <g
         id="g4039">
        <circle
           style="fill:#008080;fill-rule:evenodd;stroke-width:0.093999"
           cx="2.7721934"
           cy="2.7485011"
           r="2.6458333"
           id="circle4037" />
      </g>
      <g
         id="g4045">
        <path
           d="M 1.9414184,4.355669 H 1.5073363 V 1.5896012 Q 1.3505844,1.7391184 1.0949583,1.8886356 0.84174372,2.0381528 0.63917206,2.1129114 V 1.6932986 Q 1.0033187,1.5220774 1.2758258,1.2785091 1.548333,1.0349407 1.6616766,0.80584185 h 0.2797418 z"
           fill="#ffffff"
           id="path4041" />
        <path
           d="m 2.6287375,2.6121058 q 0,-0.6270075 0.127813,-1.0080352 0.1302247,-0.3834392 0.3834393,-0.590834 0.2556261,-0.20739475 0.6414769,-0.20739475 0.2845649,0 0.4991944,0.11575523 0.2146295,0.11334362 0.3545004,0.33038472 0.1398709,0.2146295 0.2194527,0.5257217 0.079582,0.3086806 0.079582,0.8344023 0,0.6221844 -0.1278131,1.0056236 Q 4.6785697,3.9987571 4.4229436,4.2085634 4.169729,4.4159582 3.7814667,4.4159582 3.2702144,4.4159582 2.9784147,4.0494 2.6287375,3.6080831 2.6287375,2.6121058 Z m 0.4461399,0 q 0,0.8705758 0.2025717,1.1599639 0.2049832,0.2869765 0.5040176,0.2869765 0.2990343,0 0.501606,-0.2893881 0.2049832,-0.289388 0.2049832,-1.1575523 0,-0.8729874 -0.2049832,-1.1599639 Q 4.080501,1.1651654 3.7766435,1.1651654 q -0.2990343,0 -0.4774903,0.2532146 -0.2242758,0.32315 -0.2242758,1.1937258 z"
           fill="#ffffff"
           id="path4043" />
      </g>
    </g>
    <g
       id="g4375"
       transform="translate(143.72738,52.3601)">
      <g
         id="g4239">
        <circle
           style="fill:#008080;fill-rule:evenodd;stroke-width:0.093999"
           cx="2.7721934"
           cy="2.7485011"
           r="2.6458333"
           id="circle4237" />
      </g>
      <g
         id="g4245">
        <path
           d="M 1.9860935,4.4673567 H 1.5520114 V 1.7012889 Q 1.3952595,1.8508061 1.1396334,2.0003233 0.88641882,2.1498404 0.68384716,2.224599 V 1.8049863 Q 1.0479938,1.633765 1.3205009,1.3901967 1.5930081,1.1466284 1.7063517,0.91752951 h 0.2797418 z"
           fill="#ffffff"
           id="path4241" />
        <path
           d="M 4.3663106,4.4673567 H 3.9322285 V 1.7012889 Q 3.7754766,1.8508061 3.5198505,2.0003233 3.2666359,2.1498404 3.0640642,2.224599 V 1.8049863 Q 3.4282109,1.633765 3.700718,1.3901967 3.9732251,1.1466284 4.0865688,0.91752951 h 0.2797418 z"
           fill="#ffffff"
           id="path4243" />
      </g>
    </g>
    <g
       id="g4562"
       transform="translate(143.72738,61.62052)">
      <g
         id="g4426">
        <circle
           style="fill:#008080;fill-rule:evenodd;stroke-width:0.093999"
           cx="2.7721934"
           cy="2.7485011"
           r="2.6458333"
           id="circle4424" />
      </g>
      <g
         id="g4432">
        <path
           d="M 1.8297307,4.3333316 H 1.3956486 V 1.5672638 Q 1.2388967,1.716781 0.98327057,1.8662982 0.73005599,2.0158153 0.52748433,2.0905739 V 1.6709612 Q 0.89163101,1.4997399 1.1641381,1.2561716 1.4366452,1.0126033 1.5499889,0.78350441 h 0.2797418 z"
           fill="#ffffff"
           id="path4428" />
        <path
           d="M 4.7537174,3.9161304 V 4.3333316 H 2.4169086 Q 2.4120854,4.1765797 2.4675515,4.0318857 2.5567795,3.7931405 2.7521164,3.56163 2.949865,3.3301196 3.3212463,3.0262621 3.8976109,2.5535949 4.1001826,2.2786762 4.3027543,2.0013459 4.3027543,1.7553661 q 0,-0.2580377 -0.1856907,-0.4340822 Q 3.9337845,1.142828 3.6371617,1.142828 q -0.3135038,0 -0.501606,0.1881022 Q 2.9474534,1.5190325 2.9450418,1.8518288 L 2.4989019,1.806009 Q 2.5447217,1.3068145 2.843756,1.0463653 3.1427904,0.78350441 3.6468079,0.78350441 q 0.5088408,0 0.8054635,0.28215339 0.2966228,0.2821534 0.2966228,0.6993545 0,0.212218 -0.086816,0.4172012 Q 4.5752614,2.3871967 4.3726897,2.613884 4.1725296,2.8405714 3.7046856,3.2360684 3.3140116,3.5640416 3.2030795,3.6822084 3.0921474,3.7979636 3.0198004,3.9161304 Z"
           fill="#ffffff"
           id="path4430" />
      </g>
    </g>
    <text
       xml:space="preserve"
       style="font-style:normal;font-weight:normal;font-size:4.23333px;line-height:1.25;font-family:sans-serif;fill:#000000;fill-opacity:1;stroke:none;stroke-width:0.264583"
       x="88.05352"
       y="38.00127"
       id="text214-1"><tspan
         sodipodi:role="line"
         id="tspan212-4"
         x="88.05352"
         y="38.00127"
         style="font-size:4.23333px;stroke-width:0.264583">Othniel</tspan></text>
    <text
       xml:space="preserve"
       style="font-style:normal;font-weight:normal;font-size:4.23333px;line-height:1.25;font-family:sans-serif;fill:#000000;fill-opacity:1;stroke:none;stroke-width:0.264583"
       x="87.877823"
       y="47.261677"
       id="text214-1-2"><tspan
         sodipodi:role="line"
         id="tspan212-4-5"
         x="87.877823"
         y="47.261677"
         style="font-size:4.23333px;stroke-width:0.264583">Ehud</tspan></text>
    <text
       xml:space="preserve"
       style="font-style:normal;font-weight:normal;font-size:4.23333px;line-height:1.25;font-family:sans-serif;fill:#000000;fill-opacity:1;stroke:none;stroke-width:0.264583"
       x="88.014252"
       y="56.522083"
       id="text214-1-3"><tspan
         sodipodi:role="line"
         id="tspan212-4-1"
         x="88.014252"
         y="56.522083"
         style="font-size:4.23333px;stroke-width:0.264583">Shamgar</tspan></text>
    <text
       xml:space="preserve"
       style="font-style:normal;font-weight:normal;font-size:4.23333px;line-height:1.25;font-family:sans-serif;fill:#000000;fill-opacity:1;stroke:none;stroke-width:0.264583"
       x="87.877823"
       y="65.782478"
       id="text214-1-3-9"><tspan
         sodipodi:role="line"
         id="tspan212-4-1-5"
         x="87.877823"
         y="65.782478"
         style="font-size:4.23333px;stroke-width:0.264583">Barak</tspan></text>
    <text
       xml:space="preserve"
       style="font-style:normal;font-weight:normal;font-size:4.23333px;line-height:1.25;font-family:sans-serif;fill:#000000;fill-opacity:1;stroke:none;stroke-width:0.264583"
       x="118.21603"
       y="38.00127"
       id="text214-1-3-0"><tspan
         sodipodi:role="line"
         id="tspan212-4-1-0"
         x="118.21603"
         y="38.00127"
         style="font-size:4.23333px;stroke-width:0.264583">Gideon</tspan></text>
    <text
       xml:space="preserve"
       style="font-style:normal;font-weight:normal;font-size:4.23333px;line-height:1.25;font-family:sans-serif;fill:#000000;fill-opacity:1;stroke:none;stroke-width:0.264583"
       x="118.45374"
       y="47.261677"
       id="text214-1-3-5"><tspan
         sodipodi:role="line"
         id="tspan212-4-1-9"
         x="118.45374"
         y="47.261677"
         style="font-size:4.23333px;stroke-width:0.264583">Tola</tspan></text>
    <text
       xml:space="preserve"
       transform="scale(0.26458333)"
       id="text4743"
       style="font-style:normal;font-weight:normal;font-size:40px;line-height:1.25;font-family:sans-serif;white-space:pre;shape-inside:url(#rect4745);fill:#000000;fill-opacity:1;stroke:none" />
    <text
       xml:space="preserve"
       style="font-style:normal;font-weight:normal;font-size:4.23333px;line-height:1.25;font-family:sans-serif;fill:#000000;fill-opacity:1;stroke:none;stroke-width:0.264583"
       x="118.36279"
       y="56.404301"
       id="text214-1-3-0-8"><tspan
         sodipodi:role="line"
         id="tspan212-4-1-0-7"
         x="118.36279"
         y="56.404301"
         style="font-size:4.23333px;stroke-width:0.264583">Jair</tspan></text>
    <text
       xml:space="preserve"
       style="font-style:normal;font-weight:normal;font-size:4.23333px;line-height:1.25;font-family:sans-serif;fill:#000000;fill-opacity:1;stroke:none;stroke-width:0.264583"
       x="118.36279"
       y="65.782478"
       id="text214-1-3-0-8-3"><tspan
         sodipodi:role="line"
         id="tspan212-4-1-0-7-0"
         x="118.36279"
         y="65.782478"
         style="font-size:4.23333px;stroke-width:0.264583">Jephthah</tspan></text>
    <text
       xml:space="preserve"
       style="font-style:normal;font-weight:normal;font-size:4.23333px;line-height:1.25;font-family:sans-serif;fill:#000000;fill-opacity:1;stroke:none;stroke-width:0.264583"
       x="151.50804"
       y="38.00127"
       id="text214-1-3-0-8-8"><tspan
         sodipodi:role="line"
         id="tspan212-4-1-0-7-5"
         x="151.50804"
         y="38.00127"
         style="font-size:4.23333px;stroke-width:0.264583">Ibzan</tspan></text>
    <text
       xml:space="preserve"
       style="font-style:normal;font-weight:normal;font-size:4.23333px;line-height:1.25;font-family:sans-serif;fill:#000000;fill-opacity:1;stroke:none;stroke-width:0.264583"
       x="151.37782"
       y="47.261677"
       id="text214-1-3-0-8-2"><tspan
         sodipodi:role="line"
         id="tspan212-4-1-0-7-2"
         x="151.37782"
         y="47.261677"
         style="font-size:4.23333px;stroke-width:0.264583">Elon</tspan></text>
    <text
       xml:space="preserve"
       style="font-style:normal;font-weight:normal;font-size:4.23333px;line-height:1.25;font-family:sans-serif;fill:#000000;fill-opacity:1;stroke:none;stroke-width:0.264583"
       x="151.73749"
       y="56.522083"
       id="text214-1-3-0-8-9"><tspan
         sodipodi:role="line"
         id="tspan212-4-1-0-7-6"
         x="151.73749"
         y="56.522083"
         style="font-size:4.23333px;stroke-width:0.264583">Abdon</tspan></text>
    <text
       xml:space="preserve"
       style="font-style:normal;font-weight:normal;font-size:4.23333px;line-height:1.25;font-family:sans-serif;fill:#000000;fill-opacity:1;stroke:none;stroke-width:0.264583"
       x="151.51425"
       y="65.699791"
       id="text214-1-3-0-8-4"><tspan
         sodipodi:role="line"
         id="tspan212-4-1-0-7-1"
         x="151.51425"
         y="65.699791"
         style="font-size:4.23333px;stroke-width:0.264583">Samson</tspan></text>
    <text
       xml:space="preserve"
       style="font-style:normal;font-weight:normal;font-size:4.93889px;line-height:1.25;font-family:sans-serif;fill:#d40000;fill-opacity:1;stroke:none;stroke-width:0.264583"
       x="80.8741"
       y="27.382465"
       id="text4875"><tspan
         sodipodi:role="line"
         id="tspan4873"
         x="80.8741"
         y="27.382465"
         style="font-size:4.93889px;fill:#d40000;stroke-width:0.264583">Judges:</tspan></text>
  </g>
  <metadata
     id="metadata4877">
    <rdf:RDF>
      <cc:Work
         rdf:about="">
        <dc:title>legend-settlement</dc:title>
      </cc:Work>
    </rdf:RDF>
  </metadata>
</svg>
