<?xml version="1.0" encoding="UTF-8" standalone="no"?>
<!-- Created with Inkscape (http://www.inkscape.org/) -->

<svg
   width="400"
   height="650"
   viewBox="0 0 105.83333 171.97918"
   version="1.1"
   id="svg5"
   inkscape:version="1.2 (dc2aedaf03, 2022-05-15)"
   sodipodi:docname="legends-conquest-inkscape.svg"
   xmlns:inkscape="http://www.inkscape.org/namespaces/inkscape"
   xmlns:sodipodi="http://sodipodi.sourceforge.net/DTD/sodipodi-0.dtd"
   xmlns="http://www.w3.org/2000/svg"
   xmlns:svg="http://www.w3.org/2000/svg"
   xmlns:rdf="http://www.w3.org/1999/02/22-rdf-syntax-ns#"
   xmlns:cc="http://creativecommons.org/ns#"
   xmlns:dc="http://purl.org/dc/elements/1.1/">
  <title
     id="title4879">legend-settlement</title>
  <sodipodi:namedview
     id="namedview7"
     pagecolor="#ffffff"
     bordercolor="#666666"
     borderopacity="1.0"
     inkscape:showpageshadow="2"
     inkscape:pageopacity="0.0"
     inkscape:pagecheckerboard="0"
     inkscape:deskcolor="#d1d1d1"
     inkscape:document-units="mm"
     showgrid="false"
     inkscape:zoom="1.6856878"
     inkscape:cx="87.20476"
     inkscape:cy="349.70888"
     inkscape:window-width="1920"
     inkscape:window-height="1018"
     inkscape:window-x="2729"
     inkscape:window-y="404"
     inkscape:window-maximized="1"
     inkscape:current-layer="layer1" />
  <defs
     id="defs2">
    <rect
       x="203.47777"
       y="382.63312"
       width="28.475023"
       height="48.051601"
       id="rect4745" />
  </defs>
  <g
     inkscape:label="Layer 1"
     inkscape:groupmode="layer"
     id="layer1">
    <text
       xml:space="preserve"
       style="font-style:normal;font-weight:normal;font-size:10.5833px;line-height:1.25;font-family:sans-serif;fill:#000000;fill-opacity:1;stroke:none;stroke-width:0.264583"
       x="3.1076226"
       y="15.538118"
       id="text186"><tspan
         sodipodi:role="line"
         id="tspan184"
         x="3.1076226"
         y="15.538118"
         style="stroke-width:0.264583">KEY</tspan></text>
    <text
       xml:space="preserve"
       style="font-style:normal;font-weight:normal;font-size:4.23333px;line-height:1.25;font-family:sans-serif;fill:#000000;fill-opacity:1;stroke:none;stroke-width:0.264583"
       x="19.165756"
       y="27.049509"
       id="text190"><tspan
         sodipodi:role="line"
         id="tspan188"
         x="19.165756"
         y="27.049509"
         style="font-size:4.23333px;stroke-width:0.264583">Campagn Route</tspan></text>
    <text
       xml:space="preserve"
       style="font-style:normal;font-weight:normal;font-size:4.23333px;line-height:1.25;font-family:sans-serif;fill:#000000;fill-opacity:1;stroke:none;stroke-width:0.264583"
       x="19.165756"
       y="34.987007"
       id="text194"><tspan
         sodipodi:role="line"
         id="tspan192"
         x="19.165756"
         y="34.987007"
         style="font-size:4.23333px;stroke-width:0.264583">Canaan</tspan></text>
    <text
       xml:space="preserve"
       style="font-style:normal;font-weight:normal;font-size:4.23333px;line-height:1.25;font-family:sans-serif;fill:#000000;fill-opacity:1;stroke:none;stroke-width:0.264583"
       x="19.165756"
       y="43.432999"
       id="text202"><tspan
         sodipodi:role="line"
         id="tspan200"
         x="19.165756"
         y="43.432999"
         style="font-size:4.23333px;stroke-width:0.264583">Location Reasonably Certain</tspan></text>
    <text
       xml:space="preserve"
       style="font-style:normal;font-weight:normal;font-size:4.23333px;line-height:1.25;font-family:sans-serif;fill:#000000;fill-opacity:1;stroke:none;stroke-width:0.264583"
       x="19.165756"
       y="51.287815"
       id="text206"><tspan
         sodipodi:role="line"
         id="tspan204"
         x="19.165756"
         y="51.287815"
         style="font-size:4.23333px;stroke-width:0.264583">Location Less Certain</tspan></text>
    <text
       xml:space="preserve"
       style="font-style:normal;font-weight:normal;font-size:4.23333px;line-height:1.25;font-family:sans-serif;fill:#000000;fill-opacity:1;stroke:none;stroke-width:0.264583"
       x="19.165756"
       y="59.190178"
       id="text210"><tspan
         sodipodi:role="line"
         id="tspan208"
         x="19.165756"
         y="59.190178"
         style="font-size:4.23333px;stroke-width:0.264583">Mountain</tspan></text>
    <text
       xml:space="preserve"
       style="font-style:normal;font-weight:normal;font-size:4.23333px;line-height:1.25;font-family:sans-serif;fill:#000000;fill-opacity:1;stroke:none;stroke-width:0.264583"
       x="19.165756"
       y="67.245499"
       id="text214"><tspan
         sodipodi:role="line"
         id="tspan212"
         x="19.165756"
         y="67.245499"
         style="font-size:4.23333px;stroke-width:0.264583">Precise Location Unknown</tspan></text>
    <text
       xml:space="preserve"
       style="font-style:normal;font-weight:normal;font-size:4.23333px;line-height:1.25;font-family:sans-serif;fill:#000000;fill-opacity:1;stroke:none;stroke-width:0.264583"
       x="19.165756"
       y="75.182999"
       id="text218"><tspan
         sodipodi:role="line"
         id="tspan216"
         x="19.165756"
         y="75.182999"
         style="font-size:4.23333px;stroke-width:0.264583">Road</tspan></text>
    <rect
       style="fill:#000000;stroke-width:0.470405;stroke-linejoin:bevel"
       id="rect430"
       width="105.81096"
       height="0.88789248"
       x="0.017309539"
       y="18.645739" />
    <text
       xml:space="preserve"
       style="font-style:normal;font-weight:normal;font-size:4.23333px;line-height:1.25;font-family:sans-serif;fill:#000000;fill-opacity:1;stroke:none;stroke-width:0.264583"
       x="7.1262412"
       y="83.612503"
       id="text538"><tspan
         sodipodi:role="line"
         id="tspan536"
         x="7.1262412"
         y="83.612503"
         style="font-size:4.23333px;stroke-width:0.264583">Alternative location names from same</tspan><tspan
         sodipodi:role="line"
         x="7.1262412"
         y="88.904167"
         style="font-size:4.23333px;stroke-width:0.264583"
         id="tspan540">time period are separated by a comma</tspan></text>
    <text
       xml:space="preserve"
       style="font-style:normal;font-weight:normal;font-size:4.23333px;line-height:1.25;font-family:sans-serif;fill:#000000;fill-opacity:1;stroke:none;stroke-width:0.264583"
       x="7.6297212"
       y="100.66687"
       id="text538-4"><tspan
         sodipodi:role="line"
         x="7.6297212"
         y="100.66687"
         style="font-size:4.23333px;stroke-width:0.264583"
         id="tspan540-5">Alternative location names from different</tspan><tspan
         sodipodi:role="line"
         x="7.6297212"
         y="105.95853"
         style="font-size:4.23333px;stroke-width:0.264583"
         id="tspan576">time periods are in parentheses</tspan></text>
    <rect
       style="fill:#000000;stroke-width:0.470405;stroke-linejoin:bevel"
       id="rect430-7"
       width="105.81096"
       height="0.88789248"
       x="-0.07588198"
       y="114.13982" />
    <ellipse
       cx="14.816667"
       cy="41.804161"
       stroke="#000000"
       stroke-width="0.396875"
       fill="#000000"
       id="circle602"
       rx="1.3890628"
       ry="1.3890625" />
    <g
       id="g1198"
       transform="matrix(0.69376695,0,0,0.69376695,12.500227,63.7096)">
      <path
         d="M 2.4459616,3.7472395 Q 2.4180563,3.6666243 2.3963522,3.5395003 2.3746481,3.4092757 2.3746481,3.2821516 q 0,-0.1984375 0.077515,-0.3565673 Q 2.532778,2.7643538 2.6506002,2.6248274 2.7684225,2.4853011 2.9079489,2.358177 3.0474752,2.2279524 3.1652975,2.0977278 3.2831198,1.9644026 3.3606344,1.8217757 q 0.080615,-0.1457276 0.080615,-0.3193604 0,-0.1488281 -0.058911,-0.2635498 Q 3.326528,1.1241438 3.2273092,1.0466292 3.1280905,0.96911455 2.9978659,0.93190752 2.8676413,0.89159991 2.7219137,0.89159991 q -0.523999,0 -0.9084716,0.41237789 V 0.75827471 q 0.4743896,-0.29765624 0.9828857,-0.29765624 0.2356445,0 0.4433838,0.0620117 Q 3.4474508,0.5846419 3.6024801,0.70866534 3.76061,0.82958819 3.850527,1.0125228 3.940444,1.1954573 3.940444,1.437303 q 0,0.2294434 -0.080615,0.4092774 Q 3.7792135,2.0264143 3.6551901,2.1783431 3.5342672,2.3271712 3.3916403,2.4573958 3.2490133,2.5876204 3.1249899,2.717845 3.004067,2.844969 2.9234518,2.9844954 q -0.080615,0.1395263 -0.080615,0.306958 0,0.1426269 0.034106,0.2604492 0.034107,0.1147217 0.068213,0.1953369 z m 0.2790527,1.2898437 q -0.1364258,0 -0.2418457,-0.099219 -0.1023193,-0.099219 -0.1023193,-0.2418457 0,-0.1457275 0.1023193,-0.2418457 0.1023193,-0.1023193 0.2418457,-0.1023193 0.1395264,0 0.2418457,0.1023193 0.1023193,0.096118 0.1023193,0.2418457 0,0.1426269 -0.1023193,0.2418457 -0.1054199,0.099219 -0.2418457,0.099219 z"
         fill="#000000"
         id="path1196" />
    </g>
    <ellipse
       cx="14.816667"
       cy="49.741661"
       stroke="#000000"
       stroke-width="0.396875"
       fill="#ffffff"
       id="circle1352"
       rx="1.3890628"
       ry="1.3890625" />
    <path
       fill="#826539"
       d="m 15.1053,56.091662 c -0.0866,0 -0.115454,0.05773 -0.173182,0.115454 l -1.674091,2.742047 c -0.02886,0.02887 -0.02886,0.08659 -0.02886,0.115454 0,0.144318 0.115454,0.202045 0.202045,0.202045 h 3.348182 c 0.115455,0 0.202046,-0.05773 0.202046,-0.202045 0,-0.05773 0,-0.05773 -0.02886,-0.115454 l -1.645228,-2.742047 c -0.05773,-0.05773 -0.115454,-0.115454 -0.202044,-0.115454 z m 0,0.432955 0.9525,1.5875 H 15.826891 L 15.393936,57.679162 15.1053,58.112117 14.816664,57.679162 14.38371,58.112117 h -0.259773 z"
       id="path1550"
       style="stroke-width:0.288636" />
    <path
       id="path1936-6"
       style="fill:#a05a2c;stroke-width:0.984515;stroke-linejoin:bevel"
       class="UnoptimicedTransforms"
       transform="matrix(-0.06350021,0,0,-0.06438414,19.201067,77.284185)"
       d="m 77.392374,69.264993 c 0,0 -15.035422,-16.416621 -25.006724,-16.416621 -9.971302,-10e-7 -25.006725,16.416621 -25.006725,16.416621 V 46.604962 c 0,0 15.561174,-13.327774 25.006725,-13.327774 9.44555,0 25.006724,13.327774 25.006724,13.327774 z m -0.02723,-22.662226 c 0,0 15.035422,16.416621 25.006716,16.416621 9.97131,10e-7 25.00673,-16.416621 25.00673,-16.416621 v 22.660031 c 0,0 -15.56117,13.327774 -25.00673,13.327774 -9.445542,0 -25.006716,-13.327774 -25.006716,-13.327774 z" />
    <text
       xml:space="preserve"
       transform="scale(0.26458333)"
       id="text4743"
       style="font-style:normal;font-weight:normal;font-size:40px;line-height:1.25;font-family:sans-serif;white-space:pre;shape-inside:url(#rect4745);display:inline;fill:#000000;fill-opacity:1;stroke:none" />
    <rect
       style="fill:#008080;stroke:#ffffff;stroke-width:0.352155;stroke-linejoin:round;stroke-dasharray:none"
       id="rect693"
       width="4.3946958"
       height="4.505487"
       x="12.674946"
       y="31.54266" />
    <path
       id="path1978"
       style="fill:#a02c2c;stroke-width:0.168158;stroke-linejoin:bevel"
       d="m 16.162634,26.340612 c -1.47126,0.29649 -4.270824,-0.237063 -4.502466,0.02036 -0.17939,0.199354 0.163221,1.320089 0.163221,1.320089 -0.69373,-0.781133 -0.827644,-1.496251 -1.816561,-2.080063 0.87361,-0.329855 1.452321,-1.008227 2.057842,-1.646385 0,0 -0.425491,1.205074 -0.252318,1.373707 0.235208,0.229041 2.211695,0.364932 3.328103,0.377412 1.093852,0.01223 3.268311,-0.296799 3.268311,-0.296799 0,0 -1.451541,0.771552 -2.246132,0.931679 z"
       sodipodi:nodetypes="ascccsaca" />
  </g>
  <metadata
     id="metadata4877">
    <rdf:RDF>
      <cc:Work
         rdf:about="">
        <dc:title>legend-settlement</dc:title>
      </cc:Work>
    </rdf:RDF>
  </metadata>
</svg>
