<svg id="svg5" width="400" height="650" version="1.1" viewBox="0 0 105.83 171.98" xmlns="http://www.w3.org/2000/svg">
 <title id="title4879">legend-davidic</title>
 <g id="layer1">
  <g fill="#000000">
   <g font-family="sans-serif" stroke-width=".26458">
    <text id="text186" x="3.1076226" y="15.538118" font-size="10.583px" style="line-height:1.25" xml:space="preserve"><tspan id="tspan184" x="3.1076226" y="15.538118" stroke-width=".26458">KEY</tspan></text>
    <g font-size="4.2333px">
     <text id="text190" x="19.165756" y="27.937403" style="line-height:1.25" xml:space="preserve"><tspan id="tspan188" x="19.165756" y="27.937403" font-size="4.2333px" stroke-width=".26458">David's Kingdom</tspan></text>
     <text id="text194" x="18.943783" y="36.096874" style="line-height:1.25" xml:space="preserve"><tspan id="tspan192" x="18.943783" y="36.096874" font-size="4.2333px" stroke-width=".26458">Solomon's Kingdom</tspan></text>
     <text id="text202" x="18.943783" y="60.417881" style="line-height:1.25" xml:space="preserve"><tspan id="tspan200" x="18.943783" y="60.417881" font-size="4.2333px" stroke-width=".26458">Location Reasonably Certain</tspan></text>
     <text id="text206" x="18.943783" y="68.272675" style="line-height:1.25" xml:space="preserve"><tspan id="tspan204" x="18.943783" y="68.272675" font-size="4.2333px" stroke-width=".26458">Location Less Certain</tspan></text>
     <text id="text210" x="18.943783" y="76.175041" style="line-height:1.25" xml:space="preserve"><tspan id="tspan208" x="18.943783" y="76.175041" font-size="4.2333px" stroke-width=".26458">Mountain</tspan></text>
     <text id="text214" x="18.943783" y="84.230362" style="line-height:1.25" xml:space="preserve"><tspan id="tspan212" x="18.943783" y="84.230362" font-size="4.2333px" stroke-width=".26458">Precise Location Unknown</tspan></text>
     <text id="text218" x="18.943783" y="92.167862" style="line-height:1.25" xml:space="preserve"><tspan id="tspan216" x="18.943783" y="92.167862" font-size="4.2333px" stroke-width=".26458">Road</tspan></text>
    </g>
   </g>
   <rect id="rect430" x=".01731" y="18.646" width="105.81" height=".88789" stroke-linejoin="bevel" stroke-width=".4704"/>
   <text id="text538" x="6.9042683" y="100.59737" font-family="sans-serif" font-size="4.2333px" stroke-width=".26458" style="line-height:1.25" xml:space="preserve"><tspan id="tspan536" x="6.9042683" y="100.59737">Alternative location names from same</tspan><tspan id="tspan540" x="6.9042683" y="105.88903">time period are separated by a comma</tspan></text>
   <text id="text538-4" x="7.6297212" y="117.42972" font-family="sans-serif" font-size="4.2333px" stroke-width=".26458" style="line-height:1.25" xml:space="preserve"><tspan id="tspan540-5" x="7.6297212" y="117.42972">Alternative location names from different</tspan><tspan id="tspan576" x="7.6297212" y="122.72138">time periods are in parentheses</tspan></text>
   <rect id="rect430-7" x="-.075882" y="130.9" width="105.81" height=".88789" stroke-linejoin="bevel" stroke-width=".4704"/>
   <ellipse id="circle602" cx="14.595" cy="58.789" rx="1.3891" ry="1.3891" stroke="#000000" stroke-width=".39688"/>
  </g>
  <g id="g1198" transform="matrix(.69377 0 0 .69377 12.278 80.694)">
   <path id="path1196" d="m2.446 3.7472q-.027905-.080615-.049609-.20774-.021704-.13022-.021704-.25735 0-.19844.077515-.35657.080615-.16123.19844-.30076.11782-.13953.25735-.26665.13953-.13022.25735-.26045.11782-.13333.19534-.27595.080615-.14573.080615-.31936 0-.14883-.058911-.26355-.05581-.11472-.15503-.19224-.099219-.077515-.22944-.11472-.13022-.040308-.27595-.040308-.524 0-.90847.41238v-.5457q.47439-.29766.98289-.29766.23564 0 .44338.062012.20774.062012.36277.18604.15813.12092.24805.30386.089917.18293.089917.42478 0 .22944-.080615.40928-.080616.17983-.20464.33176-.12092.14883-.26355.27905-.14263.13022-.26665.26045-.12092.12712-.20154.26665-.080615.13953-.080615.30696 0 .14263.034106.26045.034107.11472.068213.19534zm.27905 1.2898q-.13643 0-.24185-.099219-.10232-.099219-.10232-.24185 0-.14573.10232-.24185.10232-.10232.24185-.10232t.24185.10232q.10232.096118.10232.24185 0 .14263-.10232.24185-.10542.099219-.24185.099219z" fill="#000000"/>
  </g>
  <ellipse id="circle1352" cx="14.595" cy="66.727" rx="1.3891" ry="1.3891" fill="#ffffff" stroke="#000000" stroke-width=".39688"/>
  <text id="text202-8" x="18.972658" y="45.532551" fill="#000000" font-family="sans-serif" font-size="4.2333px" stroke-width=".26458" style="line-height:1.25" xml:space="preserve"><tspan id="tspan200-6" x="18.972658" y="45.532551" font-size="4.2333px" stroke-width=".26458">Imports</tspan></text>
  <text id="text206-1" x="18.972658" y="52.858196" fill="#000000" font-family="sans-serif" font-size="4.2333px" stroke-width=".26458" style="line-height:1.25" xml:space="preserve"><tspan id="tspan204-9" x="18.972658" y="52.858196" font-size="4.2333px" stroke-width=".26458">Exports</tspan></text>
  <path id="path1978-9" d="m15.82 44.836c-1.4713.29649-4.2708-.23706-4.5025.02036-.17939.19935.16322 1.3201.16322 1.3201-.69373-.78113-.82764-1.4963-1.8166-2.0801.87361-.32986 1.4523-1.0082 2.0578-1.6464 0 0-.42549 1.2051-.25232 1.3737.23521.22904 2.2117.36493 3.3281.37741 1.0939.01223 3.2683-.2968 3.2683-.2968s-1.4515.77155-2.2461.93168z" fill="#008000" stroke-linejoin="bevel" stroke-width=".16816"/>
  <path id="path1550" d="m14.883 73.077c-.0866 0-.11545.05773-.17318.11545l-1.6741 2.742c-.02886.02887-.02886.08659-.02886.11545 0 .14432.11545.20204.20204.20204h3.3482c.11546 0 .20205-.05773.20205-.20204 0-.05773 0-.05773-.02886-.11545l-1.6452-2.742c-.05773-.05773-.11545-.11545-.20204-.11545zm0 .43296.9525 1.5875h-.23091l-.43296-.43296-.28864.43296-.28864-.43296-.43295.43296h-.25977z" fill="#826539" stroke-width=".28864"/>
  <path id="path1936-6" class="UnoptimicedTransforms" transform="matrix(-.0635 0 0 -.064384 18.979 94.269)" d="m77.392 69.265s-15.035-16.417-25.007-16.417c-9.9713-1e-6-25.007 16.417-25.007 16.417v-22.66s15.561-13.328 25.007-13.328c9.4456 0 25.007 13.328 25.007 13.328zm-.02723-22.662s15.035 16.417 25.007 16.417c9.9713 1e-6 25.007-16.417 25.007-16.417v22.66s-15.561 13.328-25.007 13.328c-9.4455 0-25.007-13.328-25.007-13.328z" fill="#a05a2c" stroke-linejoin="bevel" stroke-width=".98452"/>
  <text id="text4743" transform="scale(.26458)" fill="#000000" font-family="sans-serif" font-size="40px" style="line-height:1.25;shape-inside:url(#rect4745);white-space:pre" xml:space="preserve"/>
  <rect id="rect693" x="12.175" y="32.507" width="4.3947" height="4.5055" fill="none" stroke="#800080" stroke-linejoin="round" stroke-width=".79375"/>
  <rect id="rect693-2" x="12.397" y="23.285" width="4.3947" height="4.5055" fill="none" stroke="#d4aa00" stroke-linejoin="round" stroke-width=".79375"/>
  <path id="path1978-6" d="m15.938 51.859c-1.4713.29649-4.2708-.23706-4.5025.02036-.17939.19935.16322 1.3201.16322 1.3201-.69373-.78113-.82764-1.4963-1.8166-2.0801.87361-.32986 1.4523-1.0082 2.0578-1.6464 0 0-.42549 1.2051-.25232 1.3737.23521.22904 2.2117.36493 3.3281.37741 1.0939.01223 3.2683-.2968 3.2683-.2968s-1.4515.77155-2.2461.93168z" fill="#800080" stroke-linejoin="bevel" stroke-width=".16816"/>
 </g>
</svg>
