<?xml version="1.0" encoding="UTF-8" standalone="no"?>
<!-- Created with Inkscape (http://www.inkscape.org/) -->

<svg
   width="650"
   height="400"
   viewBox="0 0 171.97916 105.83334"
   version="1.1"
   id="svg5"
   inkscape:version="1.2 (dc2aedaf03, 2022-05-15)"
   sodipodi:docname="legends-Jesus-inkscape-landscape.svg"
   xmlns:inkscape="http://www.inkscape.org/namespaces/inkscape"
   xmlns:sodipodi="http://sodipodi.sourceforge.net/DTD/sodipodi-0.dtd"
   xmlns="http://www.w3.org/2000/svg"
   xmlns:svg="http://www.w3.org/2000/svg"
   xmlns:rdf="http://www.w3.org/1999/02/22-rdf-syntax-ns#"
   xmlns:cc="http://creativecommons.org/ns#"
   xmlns:dc="http://purl.org/dc/elements/1.1/">
  <title
     id="title4879">legend-Jesus</title>
  <sodipodi:namedview
     id="namedview7"
     pagecolor="#ffffff"
     bordercolor="#666666"
     borderopacity="1.0"
     inkscape:showpageshadow="2"
     inkscape:pageopacity="0.0"
     inkscape:pagecheckerboard="0"
     inkscape:deskcolor="#d1d1d1"
     inkscape:document-units="mm"
     showgrid="false"
     inkscape:zoom="0.84284392"
     inkscape:cx="325.68308"
     inkscape:cy="95.509973"
     inkscape:window-width="1368"
     inkscape:window-height="850"
     inkscape:window-x="-6"
     inkscape:window-y="-6"
     inkscape:window-maximized="1"
     inkscape:current-layer="layer1" />
  <defs
     id="defs2">
    <rect
       x="203.47777"
       y="382.63312"
       width="28.475023"
       height="48.051601"
       id="rect4745" />
  </defs>
  <g
     inkscape:label="Layer 1"
     inkscape:groupmode="layer"
     id="layer1">
    <text
       xml:space="preserve"
       style="font-style:normal;font-weight:normal;font-size:10.5833px;line-height:1.25;font-family:sans-serif;fill:#000000;fill-opacity:1;stroke:none;stroke-width:0.264583"
       x="3.1076226"
       y="12.363121"
       id="text186"><tspan
         sodipodi:role="line"
         id="tspan184"
         x="3.1076226"
         y="12.363121"
         style="stroke-width:0.264583">KEY</tspan></text>
    <text
       xml:space="preserve"
       style="font-style:normal;font-weight:normal;font-size:4.23333px;line-height:1.25;font-family:sans-serif;fill:#000000;fill-opacity:1;stroke:none;stroke-width:0.264583"
       x="19.165756"
       y="23.174898"
       id="text190"><tspan
         sodipodi:role="line"
         id="tspan188"
         x="19.165756"
         y="23.174898"
         style="font-size:4.23333px;stroke-width:0.264583">Ruled by Herod Archelaus, later</tspan><tspan
         sodipodi:role="line"
         x="19.165756"
         y="28.46656"
         style="font-size:4.23333px;stroke-width:0.264583"
         id="tspan8937">by Roman Governor Pontius Pilate</tspan></text>
    <text
       xml:space="preserve"
       style="font-style:normal;font-weight:normal;font-size:4.23333px;line-height:1.25;font-family:sans-serif;fill:#000000;fill-opacity:1;stroke:none;stroke-width:0.264583"
       x="18.943783"
       y="35.567707"
       id="text194"><tspan
         sodipodi:role="line"
         id="tspan192"
         x="18.943783"
         y="35.567707"
         style="font-size:4.23333px;stroke-width:0.264583">Ruled by Herod Antipas</tspan></text>
    <text
       xml:space="preserve"
       style="font-style:normal;font-weight:normal;font-size:4.23333px;line-height:1.25;font-family:sans-serif;fill:#000000;fill-opacity:1;stroke:none;stroke-width:0.264583"
       x="18.943783"
       y="55.453835"
       id="text202"><tspan
         sodipodi:role="line"
         id="tspan200"
         x="18.943783"
         y="55.453835"
         style="font-size:4.23333px;stroke-width:0.264583">Location Reasonably Certain</tspan></text>
    <text
       xml:space="preserve"
       style="font-style:normal;font-weight:normal;font-size:4.23333px;line-height:1.25;font-family:sans-serif;fill:#000000;fill-opacity:1;stroke:none;stroke-width:0.264583"
       x="18.943783"
       y="64.371155"
       id="text206"><tspan
         sodipodi:role="line"
         id="tspan204"
         x="18.943783"
         y="64.371155"
         style="font-size:4.23333px;stroke-width:0.264583">Location Less Certain</tspan></text>
    <text
       xml:space="preserve"
       style="font-style:normal;font-weight:normal;font-size:4.23333px;line-height:1.25;font-family:sans-serif;fill:#000000;fill-opacity:1;stroke:none;stroke-width:0.264583"
       x="18.943783"
       y="73.336014"
       id="text210"><tspan
         sodipodi:role="line"
         id="tspan208"
         x="18.943783"
         y="73.336014"
         style="font-size:4.23333px;stroke-width:0.264583">Mountain</tspan></text>
    <text
       xml:space="preserve"
       style="font-style:normal;font-weight:normal;font-size:4.23333px;line-height:1.25;font-family:sans-serif;fill:#000000;fill-opacity:1;stroke:none;stroke-width:0.264583"
       x="18.943783"
       y="91.453835"
       id="text214"><tspan
         sodipodi:role="line"
         id="tspan212"
         x="18.943783"
         y="91.453835"
         style="font-size:4.23333px;stroke-width:0.264583">Precise Location Unknown</tspan></text>
    <text
       xml:space="preserve"
       style="font-style:normal;font-weight:normal;font-size:4.23333px;line-height:1.25;font-family:sans-serif;fill:#000000;fill-opacity:1;stroke:none;stroke-width:0.264583"
       x="18.943783"
       y="100.45384"
       id="text218"><tspan
         sodipodi:role="line"
         id="tspan216"
         x="18.943783"
         y="100.45384"
         style="font-size:4.23333px;stroke-width:0.264583">Road</tspan></text>
    <rect
       style="fill:#000000;stroke-width:0.599697;stroke-linejoin:bevel"
       id="rect430"
       width="171.96904"
       height="0.88789248"
       x="0.017309539"
       y="16.52907" />
    <text
       xml:space="preserve"
       style="font-style:normal;font-weight:normal;font-size:4.23333px;line-height:1.25;font-family:sans-serif;fill:#000000;fill-opacity:1;stroke:none;stroke-width:0.264583"
       x="80.869247"
       y="40.278473"
       id="text538"><tspan
         sodipodi:role="line"
         id="tspan536"
         x="80.869247"
         y="40.278473"
         style="font-size:4.23333px;stroke-width:0.264583">Alternative location names from same</tspan><tspan
         sodipodi:role="line"
         x="80.869247"
         y="45.570137"
         style="font-size:4.23333px;stroke-width:0.264583"
         id="tspan540">time period are separated by a comma</tspan></text>
    <text
       xml:space="preserve"
       style="font-style:normal;font-weight:normal;font-size:4.23333px;line-height:1.25;font-family:sans-serif;fill:#000000;fill-opacity:1;stroke:none;stroke-width:0.264583"
       x="78.752579"
       y="72.089722"
       id="text538-4"><tspan
         sodipodi:role="line"
         x="78.752579"
         y="72.089722"
         style="font-size:4.23333px;stroke-width:0.264583"
         id="tspan540-5">Alternative location names from different</tspan><tspan
         sodipodi:role="line"
         x="78.752579"
         y="77.381386"
         style="font-size:4.23333px;stroke-width:0.264583"
         id="tspan576">time periods are in parentheses</tspan></text>
    <rect
       style="fill:#000000;stroke-width:0.599834;stroke-linejoin:bevel"
       id="rect430-7"
       width="172.04752"
       height="0.88789248"
       x="-0.07588198"
       y="104.37698" />
    <ellipse
       cx="14.594693"
       cy="54.026539"
       stroke="#000000"
       stroke-width="0.396875"
       fill="#000000"
       id="circle602"
       rx="1.3890628"
       ry="1.3890625" />
    <text
       xml:space="preserve"
       style="font-style:normal;font-weight:normal;font-size:4.23333px;line-height:1.25;font-family:sans-serif;fill:#000000;fill-opacity:1;stroke:none;stroke-width:0.264583"
       x="18.683722"
       y="82.474503"
       id="text202-0"><tspan
         sodipodi:role="line"
         id="tspan200-4"
         x="18.683722"
         y="82.474503"
         style="font-size:4.23333px;stroke-width:0.264583">Cities of the Decapolis</tspan></text>
    <g
       id="g1198"
       transform="matrix(0.69376695,0,0,0.69376695,12.278254,87.942299)">
      <path
         d="M 2.4459616,3.7472395 Q 2.4180563,3.6666243 2.3963522,3.5395003 2.3746481,3.4092757 2.3746481,3.2821516 q 0,-0.1984375 0.077515,-0.3565673 Q 2.532778,2.7643538 2.6506002,2.6248274 2.7684225,2.4853011 2.9079489,2.358177 3.0474752,2.2279524 3.1652975,2.0977278 3.2831198,1.9644026 3.3606344,1.8217757 q 0.080615,-0.1457276 0.080615,-0.3193604 0,-0.1488281 -0.058911,-0.2635498 Q 3.326528,1.1241438 3.2273092,1.0466292 3.1280905,0.96911455 2.9978659,0.93190752 2.8676413,0.89159991 2.7219137,0.89159991 q -0.523999,0 -0.9084716,0.41237789 V 0.75827471 q 0.4743896,-0.29765624 0.9828857,-0.29765624 0.2356445,0 0.4433838,0.0620117 Q 3.4474508,0.5846419 3.6024801,0.70866534 3.76061,0.82958819 3.850527,1.0125228 3.940444,1.1954573 3.940444,1.437303 q 0,0.2294434 -0.080615,0.4092774 Q 3.7792135,2.0264143 3.6551901,2.1783431 3.5342672,2.3271712 3.3916403,2.4573958 3.2490133,2.5876204 3.1249899,2.717845 3.004067,2.844969 2.9234518,2.9844954 q -0.080615,0.1395263 -0.080615,0.306958 0,0.1426269 0.034106,0.2604492 0.034107,0.1147217 0.068213,0.1953369 z m 0.2790527,1.2898437 q -0.1364258,0 -0.2418457,-0.099219 -0.1023193,-0.099219 -0.1023193,-0.2418457 0,-0.1457275 0.1023193,-0.2418457 0.1023193,-0.1023193 0.2418457,-0.1023193 0.1395264,0 0.2418457,0.1023193 0.1023193,0.096118 0.1023193,0.2418457 0,0.1426269 -0.1023193,0.2418457 -0.1054199,0.099219 -0.2418457,0.099219 z"
         fill="#000000"
         id="path1196" />
    </g>
    <ellipse
       cx="14.594693"
       cy="63.073868"
       stroke="#000000"
       stroke-width="0.396875"
       fill="#ffffff"
       id="circle1352"
       rx="1.3890628"
       ry="1.3890625" />
    <path
       fill="#826539"
       d="m 14.883327,70.311795 c -0.0866,0 -0.115454,0.05773 -0.173182,0.115454 l -1.674091,2.742047 c -0.02886,0.02887 -0.02886,0.08659 -0.02886,0.115454 0,0.144318 0.115454,0.202045 0.202045,0.202045 h 3.348182 c 0.115455,0 0.202046,-0.05773 0.202046,-0.202045 0,-0.05773 0,-0.05773 -0.02886,-0.115454 l -1.645228,-2.742047 c -0.05773,-0.05773 -0.115454,-0.115454 -0.202044,-0.115454 z m 0,0.432955 0.9525,1.5875 h -0.230909 l -0.432955,-0.432955 -0.288636,0.432955 -0.288636,-0.432955 -0.432954,0.432955 h -0.259773 z"
       id="path1550"
       style="stroke-width:0.288636" />
    <path
       id="path1936-6"
       style="fill:#a05a2c;stroke-width:0.984515;stroke-linejoin:bevel"
       class="UnoptimicedTransforms"
       transform="matrix(-0.06350021,0,0,-0.06438414,18.979094,102.40481)"
       d="m 77.392374,69.264993 c 0,0 -15.035422,-16.416621 -25.006724,-16.416621 -9.971302,-10e-7 -25.006725,16.416621 -25.006725,16.416621 V 46.604962 c 0,0 15.561174,-13.327774 25.006725,-13.327774 9.44555,0 25.006724,13.327774 25.006724,13.327774 z m -0.02723,-22.662226 c 0,0 15.035422,16.416621 25.006716,16.416621 9.97131,10e-7 25.00673,-16.416621 25.00673,-16.416621 v 22.660031 c 0,0 -15.56117,13.327774 -25.00673,13.327774 -9.445542,0 -25.006716,-13.327774 -25.006716,-13.327774 z" />
    <text
       xml:space="preserve"
       transform="scale(0.26458333)"
       id="text4743"
       style="font-style:normal;font-weight:normal;font-size:40px;line-height:1.25;font-family:sans-serif;white-space:pre;shape-inside:url(#rect4745);display:inline;fill:#000000;fill-opacity:1;stroke:none" />
    <rect
       style="fill:none;stroke:#ccadc1;stroke-width:0.79375;stroke-linejoin:round;stroke-dasharray:none;stroke-opacity:1"
       id="rect693"
       width="4.3946958"
       height="4.505487"
       x="12.174902"
       y="31.977573" />
    <text
       xml:space="preserve"
       style="font-style:normal;font-weight:normal;font-size:4.23333px;line-height:1.25;font-family:sans-serif;fill:#000000;fill-opacity:1;stroke:none;stroke-width:0.264583"
       x="18.634392"
       y="45.295986"
       id="text194-0"><tspan
         sodipodi:role="line"
         id="tspan192-0"
         x="18.634392"
         y="45.295986"
         style="font-size:4.23333px;stroke-width:0.264583">Ruled by Philip</tspan></text>
    <rect
       style="fill:none;stroke:#dac459;stroke-width:0.79375;stroke-linejoin:round;stroke-dasharray:none;stroke-opacity:1"
       id="rect693-5"
       width="4.3946958"
       height="4.505487"
       x="12.198467"
       y="42.124035" />
    <rect
       style="fill:none;stroke:#7cd0c2;stroke-width:0.79375;stroke-linejoin:round;stroke-dasharray:none;stroke-opacity:1"
       id="rect693-2"
       width="4.3946958"
       height="4.505487"
       x="12.174902"
       y="21.493134" />
    <circle
       cx="14.5875"
       cy="81.093483"
       r="1.3890629"
       stroke="#e6082d"
       stroke-width="0.396874"
       fill="#e6082d"
       id="circle8393" />
  </g>
  <metadata
     id="metadata4877">
    <rdf:RDF>
      <cc:Work
         rdf:about="">
        <dc:title>legend-Jesus</dc:title>
      </cc:Work>
    </rdf:RDF>
  </metadata>
</svg>
